<svg width="88" height="88" viewBox="0 0 88 88" fill="none" xmlns="http://www.w3.org/2000/svg">
<path fill-rule="evenodd" clip-rule="evenodd" d="M11.2616 34.4253L12.2222 36.8715L14.6304 35.8212L13.5835 38.2294L16.0263 39.19L13.5835 40.1505L14.6304 42.5553L12.2222 41.5084L11.2616 43.9512L10.3045 41.5084L7.89283 42.5553L8.94321 40.147L6.50039 39.19L8.94321 38.2294L7.89283 35.8212L10.3045 36.8715L11.2616 34.4253ZM76.8651 34.4253L77.8257 36.8715L80.2339 35.8212L79.1836 38.2294L81.6264 39.19L79.1836 40.1505L80.2339 42.5553L77.8257 41.5084L76.8651 43.9512L75.9046 41.5084L73.4998 42.5553L74.5467 40.147L72.1005 39.19L74.5467 38.2294L73.4998 35.8212L75.9046 36.8715L76.8651 34.4253Z" fill="#2C3563"/>
<path fill-rule="evenodd" clip-rule="evenodd" d="M72.4725 19.4673C72.4794 19.3118 72.4656 19.1252 72.4276 18.9248C72.4068 18.7451 72.3516 18.6242 72.2548 18.5689C72.1546 18.5171 72.0717 18.5447 72.0061 18.6588C71.975 18.7486 71.9266 18.8523 71.8471 18.9628C71.8091 19.0665 71.7158 19.1632 71.5742 19.2565C71.3634 19.3913 71.1319 19.5329 70.8866 19.6884C70.2854 20.0616 69.698 20.3864 69.121 20.6524C68.5405 20.9254 67.9877 21.1327 67.4625 21.2813C66.7473 21.4747 66.0562 21.5922 65.3825 21.6268C65.0059 21.6682 64.6327 21.6959 64.2768 21.7132C64.1974 21.7097 64.1421 21.7201 64.0937 21.7339C64.0142 21.765 64.0073 21.8133 64.066 21.879C64.1213 21.9343 64.2353 21.9792 64.4116 22.0068C64.6016 22.0414 64.7847 22.0587 64.9679 22.0552C65.5656 22.1381 66.2255 22.1174 66.958 21.9827C67.58 21.8686 68.2295 21.6855 68.9033 21.4229C69.6323 21.1327 70.3303 20.7975 70.9937 20.4105C71.2494 20.2516 71.4981 20.1134 71.74 19.9959C71.8748 19.9199 72.0164 19.8543 72.165 19.799C72.2203 19.7886 72.2583 19.7782 72.2894 19.7644C72.317 19.8335 72.3412 19.9061 72.3688 19.9752C72.4518 20.1652 72.5865 20.338 72.7766 20.5004C73.5816 21.2432 74.4005 21.9999 75.2332 22.7773C75.6202 23.1229 75.8655 23.306 75.9691 23.3302C76.0555 23.3544 76.1177 23.3302 76.1454 23.268C76.1903 23.1678 76.173 23.0192 76.0901 22.8223C76.0002 22.6184 75.8551 22.4491 75.6651 22.3178C75.1641 21.9654 74.6596 21.5749 74.1517 21.1465C73.6162 20.6697 73.0772 20.1203 72.5312 19.4984C72.5174 19.4811 72.4967 19.4673 72.4725 19.4673ZM50.8465 10.5702C50.8776 10.5806 50.9156 10.5875 50.9536 10.5909C51.2439 10.5978 51.693 10.6635 52.3046 10.7879C52.3046 10.8224 52.3184 10.8812 52.3564 10.971C52.4566 11.2612 52.619 11.3269 52.8367 11.1576C53.0026 11.0436 53.1131 10.9088 53.1719 10.7464C53.3135 10.3421 53.469 9.92752 53.6349 9.49908C53.7765 9.12246 53.9666 8.82878 54.1946 8.61456C54.3397 8.504 54.3743 8.37269 54.2948 8.22412C54.1808 8.06172 54.0253 7.88206 53.8249 7.69202C53.7109 7.60564 53.5899 7.578 53.4552 7.59528C52.9058 7.64365 52.3357 7.63673 51.7518 7.578C51.7449 7.56763 51.7311 7.55036 51.7138 7.52617C51.5652 7.30504 51.389 7.13229 51.1886 7.0079C51.116 6.95953 51.04 6.96644 50.9605 7.02863C50.9191 7.06664 50.9156 7.13919 50.9502 7.24284C50.9917 7.54344 50.9951 7.83369 50.9571 8.11356C50.9502 8.34851 50.8949 8.65602 50.7947 9.03609C50.4492 10.3491 50.1244 11.3649 49.8238 12.0766C49.5681 12.7781 49.2295 13.438 48.8045 14.0565C48.6628 14.2534 48.5868 14.4434 48.5765 14.63C48.573 14.941 48.6007 15.1656 48.6594 15.3038C48.732 15.4524 48.8183 15.4765 48.9324 15.3833C49.0844 15.2969 49.2226 15.1345 49.347 14.8857C49.62 14.3813 49.848 13.8422 50.0311 13.2721C50.2419 12.5569 50.463 11.8521 50.6772 11.1507C50.736 10.9537 50.7913 10.7568 50.8465 10.5702ZM52.3012 10.3145C52.201 10.2281 52.0282 10.1798 51.7898 10.1798C51.503 10.1798 51.23 10.1832 50.9709 10.1832C51.0607 9.87224 51.154 9.59583 51.2473 9.36088C51.6585 9.38852 52.0109 9.42997 52.315 9.47489C52.5016 9.47834 52.5637 9.42653 52.5119 9.31596C52.4635 9.19157 52.3461 9.09137 52.1526 9.00845C51.9833 8.94971 51.7345 8.92897 51.4028 8.94625C51.3959 8.95316 51.3855 8.95662 51.3786 8.96007C51.5514 8.46598 51.6896 8.12392 51.7898 7.93388C51.8209 7.93388 51.8589 7.93389 51.9038 7.92698C52.2182 7.9408 52.4808 7.95462 52.695 7.96499C53.0095 7.97881 53.2133 8.03063 53.3032 8.12737C53.3584 8.19302 53.3515 8.34505 53.2721 8.57655C53.0509 9.23649 52.8333 9.83769 52.6259 10.3836C52.5949 10.4596 52.5568 10.5218 52.5085 10.5667C52.4705 10.4976 52.3979 10.4112 52.3012 10.3145ZM55.4419 11.3269C55.4972 11.3476 55.5698 11.3718 55.67 11.3891C56.0466 11.4236 56.6374 11.5446 57.4287 11.7553C56.9173 13.6349 56.437 15.2001 55.9913 16.4509C55.9256 16.6617 55.8462 16.8033 55.7667 16.8828C55.7045 16.9174 55.6043 16.8932 55.4661 16.8102C55.2692 16.6997 55.0722 16.5891 54.8753 16.4716C54.7267 16.3714 54.6438 16.3611 54.63 16.4405C54.9617 16.9796 55.207 17.4322 55.3763 17.8053C55.4246 17.9954 55.5179 18.1301 55.6389 18.1992C55.708 18.2545 55.7875 18.2511 55.8738 18.1923C56.0086 18.1025 56.1848 17.9539 56.399 17.7397C56.5648 17.5531 56.6789 17.3251 56.7341 17.0625C57.128 15.3245 57.7154 13.0752 58.4963 10.3041C58.6276 9.82041 58.7796 9.48872 58.9524 9.29868C59.0975 9.17775 59.1355 9.05682 59.056 8.93589C58.9282 8.73549 58.7243 8.52472 58.4445 8.3105C58.3132 8.2103 58.175 8.17229 58.0333 8.19302C57.674 8.26558 57.3906 8.30359 57.1833 8.30359C56.9518 8.29668 56.6132 8.26212 56.1779 8.20338C56.05 8.00298 55.898 7.84405 55.7183 7.71621C55.6803 7.6782 55.6354 7.66784 55.587 7.68857C55.5249 7.70584 55.5041 7.77149 55.5283 7.88896C55.5767 8.19302 55.5663 8.52127 55.5007 8.87716C55.3866 9.38852 55.2415 9.89989 55.0688 10.4113C54.9893 10.6531 54.9651 10.9088 54.9858 11.1818C55.0066 11.3718 55.0515 11.5065 55.1171 11.5756C55.2277 11.6655 55.3313 11.5998 55.4246 11.3822C55.4315 11.358 55.4385 11.3407 55.4419 11.3269ZM57.3803 11.2474C57.2801 11.1299 57.097 11.0677 56.8413 11.0505C56.3783 11.0297 55.9567 10.9848 55.5698 10.9295C55.5905 10.8224 55.6147 10.7084 55.6319 10.5875C55.6872 10.3974 55.746 10.1936 55.8116 9.97244C55.8185 9.97589 55.8393 9.98281 55.8773 9.99317C56.3645 10.0761 56.786 10.1417 57.1384 10.1936C57.3181 10.2108 57.3941 10.1659 57.3561 10.0519C57.3042 9.92408 57.1937 9.82041 57.014 9.73403C56.8482 9.66147 56.5994 9.62348 56.2712 9.62002C56.133 9.63384 56.012 9.65112 55.898 9.66839C56.0086 9.28141 56.1191 8.93589 56.2228 8.62492C56.2781 8.63529 56.3506 8.63529 56.437 8.63875C56.8654 8.67675 57.2973 8.70439 57.7292 8.71821C57.9124 8.73549 58.0091 8.79422 58.0229 8.89097C58.0402 9.10173 58.0195 9.35396 57.9711 9.65457C57.8225 10.2558 57.6671 10.8431 57.5116 11.4098C57.4736 11.3649 57.4286 11.313 57.3803 11.2474ZM32.1609 13.324C32.427 13.5658 32.9936 14.0288 33.8678 14.6991C34.8249 15.4178 35.6334 15.9568 36.2864 16.3231C36.5905 16.5131 36.8565 16.5684 37.0742 16.4958C37.6927 16.2263 38.2766 15.9845 38.8259 15.7599C39.0609 15.67 39.168 15.594 39.1473 15.5318C39.1335 15.4593 38.978 15.4074 38.6774 15.3694C38.2904 15.3383 37.8861 15.3072 37.4612 15.2831C36.9567 15.2658 36.5386 15.2001 36.2138 15.0861C35.775 14.9514 35.1358 14.6438 34.2997 14.1705C33.3564 13.6557 32.617 13.203 32.078 12.8195C32.0573 12.6606 32.0331 12.4982 32.002 12.3392C32.7103 11.9557 33.6674 11.5204 34.8698 11.0366C35.0564 10.9745 35.2326 10.9088 35.4019 10.8397C35.5643 10.774 35.661 10.698 35.6714 10.6082C35.6679 10.4942 35.5746 10.4009 35.3984 10.3352C35.0805 10.2523 34.8179 10.2178 34.6072 10.2316C34.4275 10.2419 34.2582 10.2972 34.1062 10.4009C33.5672 10.7533 32.8243 11.2128 31.8879 11.776C31.8016 11.4616 31.7152 11.1472 31.6288 10.8397C31.5459 10.5736 31.4802 10.3249 31.425 10.1037C31.3109 9.7444 31.2522 9.32978 31.2453 8.86333C31.2591 8.74585 31.2073 8.66639 31.0933 8.61801C30.879 8.52472 30.5819 8.47635 30.2087 8.45216C29.9876 8.44525 29.8114 8.49017 29.6732 8.60073C29.5108 8.73549 29.535 8.85297 29.7457 8.95317C30.0982 9.12593 30.3262 9.35051 30.4195 9.63038C30.7581 10.5909 31.0173 11.4409 31.1969 12.1872C30.4333 12.6157 29.6213 13.0648 28.7645 13.5451C28.5883 13.6349 28.5986 13.7282 28.7921 13.8215C28.951 13.8768 29.1169 13.901 29.2897 13.8975C29.4831 13.863 29.6421 13.8042 29.763 13.7179C30.2191 13.3689 30.7408 13.0372 31.3144 12.7159C31.3282 12.7884 31.3455 12.8644 31.3558 12.9508C31.5252 13.7835 31.5563 14.5402 31.4353 15.2243C31.3697 15.7219 31.2142 16.2263 30.9481 16.7308C30.7236 17.2249 30.2951 17.8537 29.6628 18.6138C29.5695 18.7106 29.5108 18.7797 29.5039 18.8281C29.4762 18.8937 29.5419 18.9144 29.7008 18.8764C29.8252 18.835 30.0982 18.6277 30.5162 18.2545C30.8134 17.9988 31.152 17.5877 31.5217 17.0279C31.8016 16.5926 31.9916 16.1399 32.1022 15.6528C32.2335 15.1103 32.2715 14.4676 32.2093 13.7351C32.1886 13.6004 32.1747 13.4656 32.1609 13.324ZM13.617 22.5562C13.7828 22.4733 13.9694 22.3869 14.1836 22.2902C14.2734 22.2522 14.3494 22.2038 14.3978 22.1485C14.4151 22.1209 14.4082 22.0759 14.3806 22.0207C14.346 21.9619 14.2251 21.9205 14.0178 21.8997C13.9072 21.8928 13.807 21.9135 13.7172 21.9654C13.6619 21.9896 13.6135 22.0207 13.5686 22.0621C13.5375 21.9274 13.5064 21.7823 13.4753 21.6268C13.4235 21.4747 13.4027 21.3504 13.4096 21.2571C13.3993 21.1811 13.3578 21.1292 13.2853 21.1085C13.23 21.0843 13.109 21.0843 12.9259 21.105C12.7704 21.1569 12.6564 21.2121 12.5908 21.2743C12.5286 21.3573 12.5528 21.416 12.6668 21.454C12.7635 21.4851 12.8326 21.5369 12.8775 21.6129C13.0054 21.8444 13.1091 22.0898 13.1989 22.3454C13.1782 22.3593 13.154 22.3765 13.1194 22.3973C12.843 22.6426 12.6357 22.8361 12.4975 22.9708C12.4629 23.0088 12.4698 23.0399 12.5148 23.0572C12.57 23.0779 12.6288 23.0745 12.6806 23.0434C12.8775 22.9294 13.0883 22.8154 13.3094 22.7013C13.3716 22.8914 13.42 23.1021 13.4649 23.3302C13.4615 23.3958 13.4718 23.4442 13.4926 23.4753C13.5202 23.534 13.5582 23.5306 13.5962 23.4684C13.6273 23.42 13.6446 23.3094 13.6446 23.1367C13.6481 22.9812 13.6411 22.7877 13.617 22.5562ZM15.1718 23.4476C15.3618 23.3785 15.5657 23.2991 15.7903 23.2127C15.8974 23.1816 15.9734 23.1367 16.0183 23.0779C16.0356 23.0503 16.0321 23.0088 16.0079 22.9536C15.9838 22.881 15.8663 22.8361 15.659 22.8153C15.5553 22.7912 15.4551 22.8015 15.3515 22.8464C15.272 22.8637 15.1752 22.919 15.0681 23.0019C15.0405 22.9501 15.0232 22.8914 15.0128 22.8292C14.961 22.6806 14.9368 22.5562 14.9368 22.4629C14.9196 22.3904 14.8815 22.3489 14.8228 22.3351C14.771 22.3109 14.657 22.3178 14.4842 22.3454C14.3425 22.3835 14.2458 22.4422 14.194 22.5147C14.1421 22.5804 14.1663 22.6357 14.2665 22.6771C14.3702 22.6979 14.4393 22.7497 14.4842 22.8223C14.5499 22.9605 14.6293 23.109 14.7157 23.268C14.4497 23.4511 14.2493 23.6066 14.1145 23.7275C14.0938 23.7517 14.1007 23.7828 14.1387 23.8139C14.1905 23.845 14.2458 23.845 14.3114 23.8173C14.4773 23.7344 14.657 23.655 14.847 23.5755C14.847 23.5893 14.8539 23.6031 14.8643 23.6204C14.9576 23.8899 15.0474 24.194 15.12 24.5291C15.12 24.5948 15.1303 24.6397 15.1545 24.6639C15.1856 24.7088 15.2167 24.7053 15.2513 24.65C15.2789 24.5982 15.2893 24.5015 15.2754 24.3494C15.2824 24.1767 15.2651 23.9694 15.2236 23.7206C15.2029 23.6411 15.1856 23.5513 15.1718 23.4476ZM14.619 27.3036C14.8919 27.2 15.075 27.0203 15.1614 26.7646C15.348 26.1289 15.5691 25.4966 15.8248 24.8712C16.122 24.1732 16.5366 23.2887 17.0514 22.2141C17.3658 21.5577 17.587 21.1638 17.7148 21.029C17.8461 20.9565 17.9359 20.9357 17.9809 20.9737C18.0119 20.9841 18.0603 21.0359 18.1191 21.1292C18.2434 21.3227 18.3678 21.5162 18.4957 21.7201C18.5579 21.8272 18.6166 21.8652 18.6684 21.841C18.7237 21.8099 18.7548 21.7097 18.7583 21.5473C18.7721 21.0359 18.8446 20.6075 18.969 20.2585C19.0589 19.9683 19.0761 19.8059 19.0105 19.7782C18.9379 19.7437 18.5544 19.8508 17.8599 20.1065C17.6664 20.1687 17.5248 20.2931 17.428 20.4762C17.276 20.7906 17.1274 21.1223 16.9858 21.4678C16.0494 20.5384 15.4586 19.8128 15.2167 19.2876C15.196 19.1805 15.1407 19.1149 15.0509 19.0872C14.9196 19.0665 14.6466 19.1736 14.232 19.412C14.1145 19.488 14.0419 19.5778 14.0074 19.6815C13.8726 20.0616 13.7033 20.4762 13.4995 20.9184C13.4166 21.0532 13.4338 21.1223 13.5479 21.1258C13.6619 21.0981 13.7794 21.0428 13.8968 20.9599C14.0247 20.8563 14.1041 20.7353 14.1318 20.5971C14.1974 20.4244 14.2631 20.2447 14.3322 20.0512C14.3495 20.0063 14.3736 19.9821 14.3909 19.9752C14.4738 19.9372 14.5913 19.9717 14.7433 20.0892C14.8746 20.2032 15.0094 20.3345 15.1441 20.4762C15.0716 20.4866 14.9956 20.5349 14.9161 20.6144C14.809 20.7284 14.6984 20.9254 14.5948 21.2122C14.5533 21.3711 14.5153 21.53 14.4669 21.6855C14.4186 21.7788 14.4773 21.8064 14.6501 21.765C14.695 21.7546 14.7399 21.7097 14.7883 21.6302C15.0025 21.264 15.1891 20.9426 15.3445 20.6697C15.4897 20.8286 15.659 20.9945 15.8455 21.181C15.7903 21.2087 15.7315 21.2571 15.6762 21.3193C15.5691 21.4402 15.4793 21.6406 15.3895 21.9274C15.348 22.107 15.3134 22.2729 15.2858 22.4284C15.2512 22.532 15.3134 22.5562 15.4655 22.4906C15.5104 22.4837 15.5519 22.4318 15.5968 22.3454C15.7764 21.9896 15.9319 21.6786 16.0632 21.4125C16.2602 21.6268 16.4813 21.8583 16.7163 22.1001C16.6299 22.2591 16.5539 22.4249 16.4882 22.5977C16.1081 23.3785 15.6417 24.3944 15.0923 25.6521C15.075 25.6762 15.0647 25.7073 15.0647 25.735C14.6984 25.6106 14.3702 25.4931 14.0696 25.3722L14.0765 25.3687C14.2251 25.0128 14.3529 24.695 14.4669 24.4186C14.5188 24.2665 14.4911 24.1974 14.3806 24.2043C14.2631 24.232 14.1491 24.3114 14.0316 24.4393C13.9452 24.5706 13.8692 24.7814 13.807 25.075C13.7966 25.1545 13.7966 25.2202 13.8001 25.272C13.6515 25.2167 13.5168 25.1649 13.4027 25.1165C13.2991 25.0819 13.2058 25.0474 13.1263 25.0025C13.2542 24.581 13.3751 24.2182 13.4822 23.921C13.5306 23.7759 13.5064 23.7102 13.3958 23.7241C13.2887 23.7448 13.1851 23.8208 13.0849 23.9521C12.995 24.0799 12.9363 24.2803 12.8983 24.5499C12.8845 24.6639 12.8706 24.7779 12.8637 24.8885C12.7255 24.8124 12.6288 24.7675 12.5735 24.7433C12.494 24.6915 12.4145 24.6708 12.3558 24.6777C12.3489 24.4946 12.3455 24.3356 12.3385 24.2078C12.3316 24.073 12.3247 23.9417 12.3213 23.807C12.2867 23.6584 12.2763 23.5029 12.2971 23.344C12.3178 23.2023 12.2591 23.1298 12.1278 23.1263C11.993 23.1401 11.8479 23.1989 11.6855 23.3025C11.5335 23.3958 11.4506 23.4787 11.4333 23.5548C11.3953 23.6308 11.4229 23.6722 11.5093 23.6895C11.6164 23.7206 11.6993 23.8139 11.765 23.959C11.8479 24.073 11.917 24.2078 11.9757 24.3494C12.0241 24.4738 12.0794 24.6017 12.1312 24.733C11.9446 24.8297 11.7892 24.9576 11.6648 25.1165C11.5888 25.196 11.5611 25.272 11.5819 25.3515C11.6026 25.4309 11.6717 25.4655 11.7961 25.4516C12.107 25.4309 12.4215 25.4447 12.7393 25.4931C13.0296 25.5553 13.7413 25.7764 14.8677 26.1565C14.7122 26.4744 14.5602 26.7819 14.4082 27.0756C14.3909 27.0998 14.3875 27.1274 14.3909 27.1516C14.3805 27.1551 14.3667 27.1481 14.3425 27.1343C14.1456 27.1101 13.9936 27.124 13.8865 27.1758C13.7275 27.2311 13.7241 27.3209 13.8865 27.4349C13.9348 27.4522 13.9832 27.4798 14.0419 27.5144C14.1698 27.6008 14.2596 27.7079 14.3114 27.8254C14.4116 28.043 14.5084 28.2953 14.5879 28.5855C14.6224 28.6926 14.7157 28.7755 14.8712 28.8308C15.0785 28.9207 15.2513 28.9656 15.3998 28.9656C15.6313 28.9828 15.697 28.8654 15.5933 28.62C15.5035 28.4196 15.3584 28.2089 15.158 27.9808C14.9196 27.7079 14.7399 27.4833 14.619 27.3036ZM19.2558 25.1338C19.6324 24.4013 20.13 23.5548 20.7381 22.5977C20.8763 22.3904 21.0007 22.1969 21.1112 22.0137C21.208 21.8686 21.2356 21.7615 21.1942 21.6855C21.132 21.5818 21.0076 21.5611 20.8279 21.6233C20.5446 21.7408 20.3165 21.8583 20.1472 21.9757C20.009 22.0932 19.9054 22.2383 19.8432 22.4111C19.5875 23.0745 19.2351 23.9417 18.7824 25.0059C18.7479 24.9956 18.7064 24.9887 18.6684 24.9783C18.5302 24.9645 18.4024 24.9748 18.2676 25.0128C18.2504 24.7019 18.2296 24.3702 18.2089 24.0212C18.1778 23.6446 18.1951 23.3544 18.2676 23.1436C18.3022 22.9847 18.2642 22.8879 18.1329 22.8603C18.0085 22.8153 17.6837 22.9294 17.1551 23.2058C17.0099 23.2887 16.9167 23.42 16.8717 23.5962C16.7474 24.111 16.5677 24.7433 16.3362 25.5C16.2809 25.7073 16.1116 25.9976 15.8317 26.3776C15.7315 26.5262 15.7626 26.6195 15.925 26.654C16.0459 26.661 16.1842 26.6264 16.3327 26.5539C16.5884 26.4191 16.7232 26.2014 16.7301 25.8974C16.7785 25.7142 16.9201 25.1338 17.1585 24.149C17.1896 24.0419 17.2518 23.9625 17.3485 23.9175C17.4453 23.8588 17.5317 23.8795 17.5939 23.9797C17.7355 24.3253 17.891 24.6984 18.0741 25.0958C17.9809 25.1372 17.891 25.1994 17.8046 25.2789C17.6664 25.3964 17.5973 25.5069 17.6042 25.6071C17.5973 25.7281 17.6733 25.7661 17.8254 25.7246C18.0292 25.6382 18.2538 25.6002 18.4991 25.614C17.9532 26.7612 17.3693 27.9981 16.737 29.3318C16.6506 29.4908 16.7093 29.553 16.9132 29.5253C17.0825 29.4838 17.2311 29.4078 17.352 29.3007C17.4937 29.1763 17.5835 29.0416 17.625 28.8999C17.8876 28.0396 18.2434 27.1654 18.6926 26.2671C18.7652 26.1012 18.8516 25.9216 18.9483 25.7315C19.28 25.8663 19.5875 26.0287 19.8743 26.2256C20.1853 26.4398 20.4098 26.6575 20.5377 26.8717C20.6586 27.0721 20.6241 27.2829 20.4409 27.5075C20.282 27.7079 20.1162 27.8979 19.9503 28.0776C19.8743 28.1467 19.8916 28.1847 19.9952 28.1916C20.0609 28.1916 20.1749 28.1536 20.3442 28.0707C20.7554 27.9152 21.0801 27.8426 21.3151 27.853C21.4844 27.8599 21.595 27.7977 21.6399 27.6733C21.6917 27.58 21.671 27.3762 21.5881 27.0652C21.5224 26.7819 21.3669 26.5193 21.1216 26.2705C20.8314 25.9699 20.434 25.6901 19.9365 25.4378C19.6877 25.31 19.4562 25.2098 19.2558 25.1338ZM69.4078 23.7275C69.4458 23.7862 69.5045 23.8623 69.5805 23.9452C70.1852 24.5533 70.7 25.0923 71.125 25.576C71.0282 25.7557 70.9971 25.8697 71.0455 25.9147C71.1077 25.9872 71.2528 26.001 71.4843 25.9527C71.6813 25.9319 71.8229 25.8732 71.9162 25.7833C72.2065 25.5138 72.5934 25.2029 73.0875 24.8366C73.2257 24.7295 73.3881 24.6673 73.5678 24.6535C73.7094 24.6397 73.7889 24.5879 73.8027 24.5049C73.82 24.2389 73.7786 23.9279 73.6887 23.572C73.6473 23.4718 73.554 23.3647 73.4089 23.2576C73.091 23.0987 72.7696 22.8948 72.4518 22.6426C72.3032 22.5044 72.1581 22.38 72.0199 22.266C72.0544 22.2694 72.089 22.2729 72.1201 22.2763C72.2583 22.3005 72.4103 22.3178 72.5762 22.3351C72.6556 22.342 72.7455 22.3593 72.8457 22.3834C72.9493 22.4249 73.015 22.4146 73.0461 22.3454C73.0702 22.3005 73.091 22.2418 73.1117 22.1761C73.3536 22.3938 73.6127 22.6322 73.896 22.8879C74.2277 23.2196 74.5283 23.5202 74.8013 23.7863C74.8428 23.8554 74.9188 23.8865 75.0259 23.883C75.095 23.8415 75.1123 23.731 75.0777 23.5548C75.0708 23.4995 75.0501 23.4131 75.0086 23.2991C74.9741 23.1678 74.8911 23.0607 74.7667 22.9708C74.4281 22.7048 74.0895 22.4318 73.7475 22.1485C73.3363 21.8203 72.9735 21.4886 72.6522 21.1603C72.4276 20.9288 72.1857 20.6835 71.9266 20.4278C71.7849 20.2862 71.7089 20.3173 71.702 20.5142C71.7054 20.6109 71.7124 20.725 71.7227 20.8494C71.7435 20.9668 71.8195 21.0705 71.9508 21.1603C72.1754 21.3607 72.431 21.5818 72.7144 21.8272C72.5347 21.879 72.2894 21.9308 71.9853 21.9861C71.9128 21.9861 71.8437 21.993 71.7849 22.0241C71.7538 21.9861 71.7227 21.9515 71.6916 21.9239C71.6813 21.7822 71.6536 21.6475 71.6052 21.5231C71.5741 21.4713 71.5362 21.4506 71.4774 21.454C71.4463 21.4678 71.4152 21.5058 71.3876 21.5715C71.3427 21.644 71.2943 21.7235 71.2459 21.803C71.2045 21.8652 71.1284 21.9377 71.0317 22.0137C70.7242 22.2971 70.4616 22.5113 70.2508 22.6564C70.0712 22.7877 69.8604 22.9052 69.6358 23.0019C69.4838 23.0607 69.3766 23.1332 69.3041 23.2265C69.1901 23.3889 69.1244 23.5237 69.1106 23.6239C69.0864 23.7171 69.121 23.7655 69.2246 23.7655C69.2799 23.7621 69.3421 23.7482 69.4078 23.7275ZM71.3496 25.1925C71.2666 25.037 71.1146 24.8643 70.8866 24.6639C70.4581 24.2838 70.0608 23.9314 69.6876 23.5997C69.8431 23.5202 69.9848 23.4373 70.1126 23.344C70.1575 23.3094 70.199 23.2783 70.2301 23.2542C70.2439 23.3129 70.2888 23.3855 70.3683 23.4684C70.8106 23.8657 71.1837 24.2147 71.4912 24.5118C71.6018 24.619 71.6778 24.6224 71.7089 24.5222C71.74 24.4082 71.7158 24.2769 71.6294 24.1283C71.5534 23.9936 71.3979 23.8415 71.163 23.6688C70.89 23.4753 70.6343 23.2956 70.389 23.1298C70.4892 23.0503 70.5894 22.9708 70.6896 22.8914C70.7553 22.843 70.8175 22.7946 70.8728 22.7497C70.89 22.8084 70.935 22.8741 71.011 22.9466C71.4325 23.3198 71.7988 23.6411 72.1028 23.9106C72.2203 24.0108 72.2963 24.0143 72.3308 23.9141C72.3585 23.7897 72.3308 23.6619 72.2445 23.5271C72.1546 23.4027 71.9922 23.2542 71.7573 23.0814C71.4947 22.9156 71.2528 22.7601 71.0421 22.6184C71.2736 22.4353 71.4429 22.3178 71.5465 22.2694C71.5776 22.304 71.6156 22.3454 71.6536 22.3834C71.9473 22.6253 72.1995 22.8395 72.4138 23.0261C72.8906 23.3958 73.1324 23.6653 73.1463 23.8243C73.0979 23.9279 72.9597 24.0799 72.7316 24.2907C72.0406 24.8608 71.6087 25.1856 71.429 25.2616C71.4187 25.2582 71.3979 25.2651 71.3703 25.2789C71.3737 25.2685 71.3634 25.2374 71.3496 25.1925ZM67.9877 26.3189C67.6249 26.2602 67.2621 26.1531 66.9062 25.9941C66.381 25.7315 65.8662 25.3895 65.3479 24.9818C65.2788 24.9023 65.2339 24.923 65.2201 25.0336C65.227 25.0923 65.3445 25.2547 65.5725 25.5208C65.8731 25.849 66.267 26.1496 66.768 26.4226C67.1515 26.6402 67.5523 26.7819 67.9739 26.851C67.9566 27.5455 67.9531 28.2469 67.9635 28.9483C67.9566 29.2109 68.0533 29.4527 68.2537 29.6704C68.6165 30.092 69.0312 30.4686 69.508 30.8003C69.622 30.8936 69.6945 30.9316 69.7325 30.9143C69.7809 30.8832 69.7809 30.8141 69.7325 30.6966C69.5494 30.2613 69.349 29.7948 69.1244 29.2973C68.886 28.7203 68.7202 28.1778 68.6303 27.6699C68.5751 27.4038 68.5267 27.1412 68.4852 26.8821C68.8549 26.8752 69.2799 26.8303 69.7602 26.7508C69.9779 26.7093 70.1921 26.7197 70.389 26.7784C70.5652 26.8337 70.6724 26.7992 70.7035 26.6679C70.738 26.5435 70.7242 26.3534 70.6689 26.1012C70.624 25.925 70.503 25.7764 70.313 25.6624C70.1299 25.5518 69.9364 25.4102 69.7187 25.2409C69.5874 25.1234 69.4216 24.9679 69.2212 24.7779C69.2592 24.7364 69.2903 24.6777 69.311 24.5982C69.3456 24.4738 69.3525 24.346 69.3317 24.2182C69.311 24.073 69.273 23.9659 69.2246 23.9037C69.1901 23.8588 69.1348 23.8657 69.0691 23.9175C68.9931 23.9763 68.886 24.0316 68.7513 24.073C68.4127 24.1283 68.0948 24.1421 67.8011 24.1145C67.4556 24.1007 67.1308 24.0558 66.8336 23.9728C66.5227 23.9003 66.0459 23.7448 65.3997 23.5064C65.3479 23.4753 65.3307 23.4926 65.3445 23.5513C65.3687 23.5997 65.4516 23.6653 65.576 23.7482C65.7626 23.8934 65.9664 24.0247 66.1979 24.149C66.4812 24.3045 66.8198 24.4358 67.2172 24.5395C67.4487 24.5844 67.7389 24.6397 68.0913 24.7019C68.0879 24.7088 68.0844 24.7261 68.0844 24.7502C68.0568 25.272 68.0222 25.7972 67.9877 26.3189ZM69.2592 25.3584C69.584 25.5726 69.7636 25.7039 69.8051 25.7557C69.8742 25.8974 69.8258 25.9907 69.6738 26.039C69.2454 26.2118 68.8273 26.3051 68.4161 26.3224C68.3885 26.1185 68.3747 25.9146 68.3781 25.7108C68.3747 25.2754 68.3643 24.9507 68.3539 24.7364C68.4852 24.7364 68.6303 24.7537 68.7927 24.7952C68.8757 24.9817 69.0311 25.1683 69.2592 25.3584Z" fill="#2C3563"/>
<path fill-rule="evenodd" clip-rule="evenodd" d="M73.6568 66.148L68.6779 62.5235L69.5935 61.2589L72.0363 62.1435C72.3058 62.2402 72.5823 62.3439 72.8656 62.4579C73.1454 62.5685 73.4392 62.6928 73.7467 62.8276C73.4702 62.679 73.2042 62.5235 72.9416 62.3542C72.6825 62.1884 72.3888 61.988 72.0605 61.7496L70.2155 60.4055L71.0067 59.3102L75.9891 62.9347L75.1045 64.1544L72.4924 63.2422C72.2195 63.1489 71.9396 63.0418 71.6597 62.9278C71.3799 62.8103 71.0896 62.6825 70.7925 62.5408C71.1864 62.7758 71.5561 63.0073 71.8981 63.2318C72.2402 63.453 72.5546 63.6672 72.8379 63.8745L74.4515 65.0493L73.6568 66.148ZM78.0242 52.2133L78.2626 50.8519L78.7567 50.9418C78.9605 50.9763 79.116 50.966 79.23 50.9107C79.344 50.8554 79.4131 50.7517 79.4408 50.6032C79.465 50.465 79.4373 50.3475 79.3613 50.2473C79.2853 50.1505 79.1747 50.0883 79.0296 50.0607C78.9018 50.0365 78.767 50.0538 78.6254 50.1091C78.4872 50.1644 78.3386 50.2611 78.19 50.3958C78.1174 50.4546 78.0207 50.5444 77.8929 50.6654C77.4713 51.0489 77.1569 51.3115 76.9461 51.4497C76.7561 51.5775 76.5522 51.6639 76.3207 51.7088C76.0927 51.7503 75.8543 51.7503 75.5986 51.7054C75.0907 51.6121 74.7279 51.3875 74.4964 51.0247C74.2684 50.6619 74.2027 50.1989 74.3029 49.6392C74.3997 49.0794 74.6001 48.6786 74.9076 48.4402C75.2151 48.2018 75.6263 48.1293 76.1446 48.2191L76.6421 48.3055L76.414 49.6046L75.996 49.5321C75.8025 49.4975 75.6539 49.5079 75.5503 49.5597C75.4466 49.615 75.3809 49.7152 75.3568 49.8638C75.3326 49.9812 75.3568 50.0883 75.4293 50.1747C75.495 50.2646 75.5986 50.3198 75.7334 50.344C75.958 50.382 76.3691 50.1471 76.9703 49.6323L77.0118 49.6012L77.112 49.5113C77.6476 49.0587 78.0207 48.7996 78.228 48.727C78.3697 48.6821 78.5217 48.6544 78.6807 48.6475C78.8431 48.6372 79.0089 48.6475 79.1851 48.6786C79.7068 48.7719 80.0835 49.0034 80.3184 49.38C80.5534 49.7566 80.619 50.2404 80.5154 50.8243C80.4152 51.4013 80.1906 51.8194 79.8416 52.0682C79.4926 52.3169 79.04 52.3929 78.4802 52.2927L78.0242 52.2133ZM79.1713 55.8896L73.3148 53.9858L73.7467 52.6625L79.5997 54.5663L79.1713 55.8896ZM75.0907 60.1533L75.6505 58.8887L76.1065 59.0925C76.3 59.1789 76.4555 59.21 76.5765 59.1789C76.6974 59.1547 76.7907 59.0718 76.8529 58.9336C76.9081 58.8058 76.9116 58.6814 76.8632 58.5674C76.8114 58.4533 76.7216 58.367 76.5868 58.3048C76.4659 58.2529 76.3311 58.2357 76.1826 58.2564C76.034 58.2771 75.8716 58.3324 75.6885 58.4291C75.6055 58.4706 75.4881 58.5328 75.3326 58.6157C74.835 58.8852 74.4619 59.0614 74.2304 59.1478C74.0162 59.2308 73.795 59.2618 73.5635 59.248C73.3286 59.2342 73.0971 59.1755 72.8621 59.0684C72.3922 58.8611 72.0882 58.5501 71.9534 58.1458C71.8186 57.7347 71.867 57.2717 72.102 56.7499C72.33 56.2317 72.6237 55.893 72.9796 55.7376C73.3355 55.5786 73.7536 55.6063 74.2304 55.8205L74.6934 56.0278L74.1578 57.2302L73.7708 57.0609C73.5877 56.978 73.4426 56.9503 73.3286 56.978C73.218 57.0056 73.1316 57.0851 73.0695 57.2233C73.0176 57.3339 73.0176 57.441 73.0625 57.5446C73.1075 57.6483 73.1904 57.7243 73.3182 57.783C73.529 57.8763 73.9885 57.745 74.6934 57.3926L74.7383 57.3719L74.8592 57.3097C75.4846 57.0022 75.9096 56.8363 76.1342 56.819C76.2793 56.8087 76.4313 56.819 76.5903 56.8501C76.7492 56.8778 76.9047 56.9331 77.0671 57.0056C77.5543 57.2198 77.8652 57.5377 78.0034 57.9593C78.1382 58.3808 78.0864 58.8645 77.8445 59.407C77.6061 59.946 77.2882 60.2949 76.8909 60.4504C76.4935 60.6094 76.034 60.5714 75.5123 60.3399L75.0907 60.1533ZM70.2811 70.0835L65.855 65.799L68.018 63.5566L68.8748 64.3824L67.6794 65.6263L68.557 66.4763L69.6143 65.381L70.4573 66.1964L69.4035 67.2951L70.3951 68.2522L71.6286 66.9704L72.482 67.8031L70.2811 70.0835ZM67.6724 72.4468L63.5539 67.8652L64.587 66.9323L68.7056 71.5105L67.6724 72.4468ZM61.4082 71.3377L63.077 73.8185C63.1911 73.9844 63.2982 74.0846 63.4053 74.1226C63.5089 74.1606 63.6264 74.1364 63.7508 74.0535C63.8717 73.9706 63.9374 73.8704 63.9408 73.7598C63.9443 73.6458 63.8959 73.5076 63.7854 73.3417L62.113 70.8609C62.0025 70.695 61.8919 70.5948 61.7814 70.5568C61.6742 70.5223 61.5602 70.543 61.4358 70.6259C61.3149 70.7089 61.2527 70.8056 61.2458 70.9196C61.2423 71.0337 61.2976 71.1719 61.4082 71.3377ZM60.3647 72.3155C60.0158 71.7903 59.8776 71.3135 59.9536 70.8747C60.033 70.4394 60.3233 70.0489 60.8277 69.7103C61.3357 69.3682 61.8021 69.2404 62.2305 69.3337C62.659 69.4235 63.0529 69.7345 63.4053 70.2597L64.8185 72.3604C65.1744 72.8891 65.316 73.3694 65.2365 73.8047C65.164 74.2401 64.8737 74.627 64.3693 74.9726C63.8683 75.3112 63.3984 75.4355 62.963 75.3423C62.5277 75.249 62.1338 74.938 61.7814 74.4163L60.3647 72.3155ZM55.9387 79.0704L53.5822 73.3763L55.5586 72.5574L56.5675 74.2539C56.6919 74.4681 56.8197 74.6961 56.9441 74.9345C57.072 75.1764 57.2033 75.439 57.338 75.7223C57.224 75.3803 57.1272 75.0762 57.0443 74.8102C56.9614 74.5441 56.8992 74.3368 56.8646 74.1917L56.3878 72.2119L58.3538 71.3965L60.7103 77.0906L59.4767 77.6054L58.613 75.5219C58.4333 75.0866 58.2502 74.6374 58.0636 74.171C57.8805 73.7045 57.6904 73.2242 57.5004 72.7336C57.6282 73.2622 57.7353 73.701 57.8183 74.0569C57.9047 74.4128 57.9599 74.6409 57.9807 74.7411L58.7235 77.9164L57.915 78.2515L56.2531 75.6083C56.0216 75.2317 55.8108 74.8931 55.6311 74.589C55.4515 74.2884 55.2822 73.9982 55.1232 73.7183C55.3167 74.1433 55.5102 74.5787 55.7037 75.0209C55.8903 75.4632 56.0941 75.94 56.3083 76.4548L57.1756 78.559L55.9387 79.0704ZM49.8817 80.3765L50.0614 74.1088L51.9099 73.822L53.9623 79.7407L52.4973 79.9688L52.1898 78.8942L51.2396 79.0393L51.2707 80.1588L49.8817 80.3765ZM51.2293 77.9129L51.8892 77.8093L51.3916 75.9849C51.3571 75.8605 51.3191 75.7292 51.2845 75.5876C51.25 75.4494 51.1981 75.2386 51.1256 74.9518C51.1359 75.1177 51.1463 75.2904 51.1532 75.4701C51.1601 75.6498 51.167 75.8329 51.1739 76.0229L51.2293 77.9129ZM42.7744 78.7456L44.1461 78.8182L44.1219 79.3157C44.1081 79.523 44.1392 79.6785 44.2083 79.7856C44.2774 79.8893 44.3845 79.948 44.5366 79.9549C44.6782 79.9618 44.7922 79.9204 44.8821 79.834C44.9684 79.7442 45.0203 79.6267 45.0272 79.4781C45.0341 79.3503 44.9995 79.2155 44.9304 79.0877C44.8579 78.9564 44.7439 78.8182 44.5918 78.6834C44.5227 78.6247 44.4225 78.5348 44.2912 78.4208C43.8593 78.0477 43.5587 77.7678 43.3963 77.5812C43.2443 77.4084 43.1372 77.2115 43.0646 76.9904C42.9955 76.7658 42.9679 76.5274 42.9817 76.2717C43.0094 75.7534 43.189 75.363 43.5173 75.09C43.849 74.8171 44.3016 74.6996 44.8683 74.7272C45.4384 74.7583 45.8564 74.9104 46.1294 75.1868C46.4023 75.4632 46.5267 75.864 46.4991 76.3857L46.4749 76.8936L45.1585 76.8245L45.1827 76.3995C45.1931 76.2026 45.1654 76.0575 45.0963 75.9607C45.0341 75.864 44.927 75.8122 44.7784 75.8018C44.654 75.7983 44.5504 75.8329 44.4744 75.9124C44.3914 75.9918 44.3534 76.0989 44.3465 76.2371C44.3327 76.4652 44.6195 76.8487 45.2034 77.3808L45.2345 77.4154L45.3382 77.5087C45.8495 77.9855 46.1536 78.3206 46.2469 78.5245C46.3125 78.6592 46.3574 78.8044 46.3851 78.9633C46.4127 79.1188 46.4231 79.2881 46.4127 79.4643C46.3851 79.9964 46.202 80.4006 45.8564 80.6805C45.5109 80.9604 45.0445 81.0848 44.4536 81.0502C43.8662 81.0226 43.4274 80.8498 43.1372 80.5319C42.847 80.2175 42.7191 79.7753 42.7502 79.2052L42.7744 78.7456ZM37.1736 80.4214L38.8182 74.3748L40.6806 74.5303L41.2887 80.7669L39.8099 80.6425L39.7615 79.5299L38.8044 79.447L38.5764 80.5423L37.1736 80.4214ZM39.0601 78.3483L39.7269 78.4035L39.6682 76.5101C39.6648 76.3823 39.6613 76.2475 39.6613 76.1024C39.6578 75.9573 39.6544 75.7396 39.6578 75.4459C39.6267 75.6118 39.5956 75.7811 39.5645 75.9573C39.5265 76.1335 39.4885 76.3132 39.454 76.4997L39.0601 78.3483ZM33.5733 79.5196L34.5995 74.6512L33.7115 74.4612L33.9602 73.2968L37.0941 73.9636L36.8488 75.1315L35.9608 74.9415L34.9312 79.8064L33.5733 79.5196ZM29.3787 78.0097L31.7213 72.3086L33.0101 72.8407L30.664 78.5383L29.3787 78.0097ZM25.4501 73.5041L26.618 74.2332L26.3554 74.6581C26.2414 74.8343 26.1965 74.9864 26.2034 75.1108C26.2137 75.2351 26.2794 75.3388 26.4107 75.4217C26.5282 75.4943 26.6491 75.515 26.77 75.4805C26.8909 75.4459 26.9877 75.3664 27.0672 75.2421C27.1363 75.1315 27.1708 75.0002 27.1708 74.8516C27.1708 74.7031 27.1363 74.5268 27.0706 74.3368C27.043 74.2504 26.9946 74.1226 26.9359 73.9567C26.7355 73.4212 26.6145 73.0342 26.5627 72.7889C26.5109 72.5643 26.5074 72.3397 26.5558 72.1117C26.6042 71.8836 26.694 71.6625 26.8288 71.4379C27.1017 71.0026 27.4507 70.7469 27.8722 70.6709C28.2903 70.5948 28.7429 70.7054 29.2301 71.006C29.7104 71.3101 30.0006 71.6487 30.1077 72.0253C30.2148 72.3985 30.1285 72.8062 29.8486 73.2519L29.5825 73.6838L28.4665 72.9858L28.6876 72.623C28.7982 72.4572 28.8431 72.3155 28.8328 72.198C28.8189 72.0806 28.7533 71.9838 28.6254 71.9044C28.5218 71.8387 28.4147 71.8214 28.3076 71.8525C28.2005 71.8836 28.1106 71.9562 28.0381 72.0737C27.9171 72.2672 27.9793 72.7405 28.235 73.4903L28.2454 73.5387L28.2903 73.6665C28.5114 74.3334 28.6116 74.7791 28.5978 75.0002C28.5874 75.1453 28.5563 75.2973 28.508 75.4494C28.4527 75.6014 28.3801 75.7534 28.2868 75.902C28.007 76.3546 27.6511 76.6172 27.2123 76.6932C26.7769 76.7692 26.307 76.6552 25.8026 76.3373C25.305 76.0264 25.0044 75.6601 24.9042 75.2455C24.8006 74.8309 24.9042 74.3783 25.2083 73.8945L25.4501 73.5041ZM23.1213 70.0351C23.3667 70.2251 23.5567 70.3219 23.6914 70.3288C23.8262 70.3392 23.954 70.2666 24.0784 70.1111L24.2996 69.8416C24.4274 69.6827 24.4792 69.5376 24.4481 69.4132C24.4136 69.2853 24.2892 69.1298 24.0646 68.9536L24.0266 68.9191L23.1213 70.0351ZM19.7422 72.0287L23.612 67.2364L25.1599 68.4941C25.5607 68.8189 25.7922 69.1506 25.8578 69.4823C25.92 69.8174 25.8129 70.1526 25.5365 70.4946L25.4985 70.5396L25.2808 70.816C25.077 71.0647 24.8731 71.2237 24.6624 71.2928C24.4585 71.3584 24.2132 71.3515 23.9437 71.2582C24.0992 71.4932 24.1683 71.7178 24.1441 71.9355C24.1233 72.1497 24.0059 72.3881 23.7986 72.6472L22.9037 73.7563C22.8 73.8842 22.724 73.9947 22.6791 74.0846C22.6342 74.1744 22.6065 74.2608 22.5962 74.3472L21.5009 73.4592C21.5147 73.3866 21.5492 73.3037 21.6045 73.2139C21.6563 73.124 21.7462 73.0031 21.8706 72.8476L22.6169 71.9251C22.8277 71.6625 22.9209 71.4621 22.9037 71.3204C22.8864 71.1753 22.7516 71.0026 22.5063 70.7987L20.8064 72.8994L19.7422 72.0287ZM16.0244 68.3041L20.4885 64.0611L22.6307 66.3208L21.7704 67.1431L20.5852 65.8889L19.6973 66.7319L20.7442 67.8376L19.8908 68.6496L18.8473 67.5439L17.8487 68.4941L19.0684 69.7829L18.2081 70.6052L16.0244 68.3041ZM13.1117 64.3133L17.6622 60.0531L18.4845 61.2693L16.5254 62.8829C16.4287 62.9624 16.2248 63.1178 15.9242 63.3528C15.6202 63.5877 15.2712 63.8572 14.8704 64.1613C15.3195 63.9056 15.8586 63.6119 16.4805 63.2768C16.5876 63.2215 16.6671 63.18 16.7154 63.1524L18.9475 61.9603L19.7525 63.1524L14.093 65.7749L13.1117 64.3133ZM10.8485 60.3917L16.3803 57.6897L16.9919 58.944L11.4601 61.6459L10.8485 60.3917ZM8.6234 54.7978L14.4385 52.7834L14.9498 54.2622L12.8284 55.7617C12.5934 55.9276 12.3515 56.0969 12.0993 56.2628C11.8436 56.4286 11.5741 56.5979 11.2873 56.7741C11.5672 56.6325 11.8471 56.5046 12.1339 56.3837C12.4172 56.2662 12.7558 56.1418 13.1359 56.0071L15.2919 55.2607L15.7342 56.5392L9.91909 58.5535L9.42501 57.13L11.6674 55.5061C11.8989 55.3368 12.1442 55.1675 12.3999 55.0016C12.6591 54.8392 12.932 54.6768 13.2188 54.511C12.7973 54.701 12.3965 54.8703 12.0164 55.0258C11.6398 55.1778 11.2839 55.3126 10.9557 55.4266L9.06567 56.0796L8.6234 54.7978ZM13.6852 49.5735L9.14168 50.0883C8.94128 50.1091 8.79962 50.1575 8.71669 50.2335C8.64068 50.306 8.60612 50.4166 8.6234 50.5582C8.64068 50.7068 8.69597 50.8105 8.79617 50.8658C8.89291 50.9245 9.04148 50.9418 9.23497 50.9176L13.7785 50.4062L13.934 51.7952L9.6185 52.2789C8.98966 52.348 8.49902 52.2547 8.15005 51.9852C7.79762 51.7192 7.5903 51.2873 7.5212 50.6826C7.45555 50.0883 7.56266 49.6219 7.84944 49.2867C8.13277 48.9481 8.58885 48.7443 9.21769 48.6717L13.5298 48.188L13.6852 49.5735Z" fill="#2C3563"/>
<path fill-rule="evenodd" clip-rule="evenodd" d="M44.0017 0C68.2364 0 88 19.7636 88 43.9983C88 68.2364 68.2364 88 44.0017 88C19.7636 88 0 68.2364 0 43.9983C0 19.7636 19.7636 0 44.0017 0ZM44.0017 3.79033C66.146 3.79033 84.2097 21.854 84.2097 43.9983C84.2097 66.146 66.146 84.2097 44.0017 84.2097C21.854 84.2097 3.79033 66.146 3.79033 43.9983C3.79033 21.854 21.854 3.79033 44.0017 3.79033ZM44.0017 4.68177C65.6553 4.68177 83.3182 22.3447 83.3182 43.9983C83.3182 65.6553 65.6553 83.3148 44.0017 83.3148C22.3447 83.3148 4.68522 65.6553 4.68522 43.9983C4.68522 22.3447 22.3447 4.68177 44.0017 4.68177ZM44.0017 16.73C59.0214 16.73 71.27 28.9821 71.27 43.9983C71.27 59.0214 59.0214 71.2666 44.0017 71.2666C28.9786 71.2666 16.73 59.0214 16.73 43.9983C16.73 28.9821 28.9786 16.73 44.0017 16.73ZM44.0017 17.5005C58.5964 17.5005 70.4995 29.407 70.4995 43.9983C70.4995 58.593 58.5964 70.496 44.0017 70.496C29.4036 70.496 17.5005 58.593 17.5005 43.9983C17.5005 29.407 29.4036 17.5005 44.0017 17.5005ZM44.0017 2.00746C67.1273 2.00746 85.9925 20.8728 85.9925 43.9983C85.9925 67.1273 67.1273 85.9925 44.0017 85.9925C20.8728 85.9925 2.00746 67.1273 2.00746 43.9983C2.00746 20.8728 20.8728 2.00746 44.0017 2.00746Z" fill="#2C3563"/>
<path fill-rule="evenodd" clip-rule="evenodd" d="M48.8146 34.196H50.1794V32.928H50.8635V34.196H52.2283V32.928H52.947V34.8594H47.5535V33.7952H48.0648V32.928H48.8146V34.196ZM44.1294 37.2988C44.3747 37.316 44.6165 37.3644 44.8377 37.4439L45.121 36.6734C44.8239 36.5732 44.5129 36.511 44.1916 36.4902H44.1294V37.2988ZM45.1521 37.5752C45.356 37.6754 45.546 37.8032 45.7188 37.9518L46.3165 37.354C46.0539 37.1295 45.7568 36.9394 45.4354 36.7978L45.1521 37.5752ZM45.9606 38.1867C46.0643 38.3008 46.161 38.4217 46.2405 38.553L47.1147 38.318C46.9626 38.052 46.7795 37.8067 46.5618 37.5855L45.9606 38.1867ZM46.4132 38.8605C46.4927 39.0333 46.5584 39.2198 46.6033 39.4099H47.436V38.9953H47.4187C47.3772 38.8709 47.3323 38.7465 47.2736 38.629L46.4132 38.8605ZM46.3476 39.6034H46.3234C46.2819 39.3684 46.2094 39.1473 46.1057 38.9434H46.1023L46.0781 38.8847C45.9433 38.6394 45.774 38.4148 45.5633 38.2282L45.4907 38.1764L45.4976 38.1695C45.0761 37.817 44.5371 37.6063 43.9497 37.6063C42.7611 37.6063 41.7695 38.4701 41.576 39.6034H41.5518V43.3522H46.3476V39.6034ZM41.2961 39.4099C41.3376 39.2233 41.4032 39.0402 41.4827 38.8674L40.6189 38.6359C40.5671 38.7534 40.5187 38.8743 40.4773 38.9953H40.4634V39.1646H40.46V39.4099H41.2961ZM41.652 38.5599C41.7349 38.4355 41.8213 38.3146 41.9181 38.204L41.3169 37.6028C41.1095 37.8205 40.9264 38.0658 40.7778 38.3284L41.652 38.5599ZM42.1634 37.9656C42.3292 37.8205 42.5158 37.6927 42.7162 37.589L42.4363 36.8116C42.1184 36.9567 41.8248 37.1467 41.5656 37.3679L42.1634 37.9656ZM43.0306 37.4542C43.269 37.3679 43.5213 37.3126 43.7873 37.2988V36.4902H43.7044C43.3727 36.511 43.0514 36.5766 42.7508 36.6837L43.0306 37.4542ZM45.5425 36.4902C46.1403 36.7528 46.6586 37.1571 47.0628 37.6581V36.4902H45.5425ZM47.3807 38.1245C47.5085 38.3457 47.6226 38.5806 47.7055 38.826H48.4691V38.1245H47.3807ZM40.1905 38.826C40.2803 38.5806 40.3874 38.3457 40.5187 38.1245H39.4372V38.826H40.1905ZM40.8159 37.6857C41.2201 37.1709 41.7488 36.7563 42.3569 36.4902H40.8159V37.6857ZM46.6862 40.3981H47.436V39.7519H46.6862V40.3981ZM46.6862 41.3828H47.436V40.7367H46.6862V41.3828ZM46.6862 42.3675H47.436V41.7214H46.6862V42.3675ZM46.6862 43.3522H47.436V42.7061H46.6862V43.3522ZM41.2097 39.7519H40.46V40.1251H40.4634V40.3946H41.2097V39.7519ZM40.46 41.3828H41.2097V40.7367H40.46V41.3828ZM41.2097 41.7214H40.4634V41.9944H40.46V42.3675H41.2097V41.7214ZM40.46 43.3522H41.2097V42.7061H40.46V43.3522ZM39.185 41.6557H40.1214V40.4637H39.185V41.6557ZM37.5991 41.6557H38.8499V40.4637H37.5991V41.6557ZM38.5527 43.3522H40.1214V41.9944H38.5527V43.3522ZM37.5956 43.3522H38.2106V41.9944H37.5956V43.3522ZM38.5527 40.1251H40.1214V39.168H38.5527V40.1251ZM37.5956 40.1216H38.2106V39.1646H37.5956V40.1216ZM37.5956 38.826H39.0952V38.1245H37.5956V38.826ZM38.5492 37.7859H40.4738V36.4902H38.5492V37.7859ZM36.4312 37.7859H38.2106V36.4902H36.4312V37.7859ZM35.0457 37.7859H36.0926V36.4902H35.0457V37.7859ZM51.786 37.7859H52.947V36.4902H51.786V37.7859ZM49.6646 37.7859H51.4474V36.4902H49.6646V37.7859ZM47.4014 37.7859H49.326V36.4902H47.4014V37.7859ZM35.0457 36.1482H35.7644V35.198H35.0457V36.1482ZM36.1064 36.1482H37.4056V35.198H36.1064V36.1482ZM37.7407 36.1482H38.8326V35.198H37.7407V36.1482ZM39.1746 36.1482H41.4965V35.198H39.1746V36.1482ZM41.8351 36.1482H43.7873V35.198H41.8351V36.1482ZM44.1294 36.1482H46.0781V35.198H44.1294V36.1482ZM46.4201 36.1482H48.7282V35.198H46.4201V36.1482ZM49.0703 36.1482H50.1621V35.198H49.0703V36.1482ZM50.5042 36.1482H51.7999V35.198H50.5042V36.1482ZM52.1385 36.1482H52.9435V35.198H52.1385V36.1482ZM53.2856 38.1245H50.6735V43.6908H37.2605V38.1245H34.7036V32.5859H36.1064V33.8574H36.7871V32.5859H38.1519V33.8574H38.836V32.5859H39.8553V29.725H41.3169V31.038H42.1012V29.725H43.5662V31.038H44.347V29.725H45.812V31.038H46.5998V29.725H48.0648V32.5859H49.1566V33.8574H49.8373V32.5859H51.2021V33.8574H51.8862V32.5859H53.2856V38.1245ZM48.8111 38.826H50.3349V38.1245H48.8111V38.826ZM39.8553 32.928H39.1746V34.196H37.8133V32.928H37.1292V34.196H35.7644V32.928H35.0457V34.8594H40.3632V33.7952H39.8553V32.928ZM40.7053 34.8594V33.7952H42.6471V34.8594H40.7053ZM42.9857 34.8594V33.7952H44.931V34.8594H42.9857ZM45.2696 34.8594V33.7952H47.2114V34.8594H45.2696ZM47.778 43.3522H49.3571V41.9944H47.778V43.3522ZM49.6957 43.3522H50.3349V41.9944H49.6957V43.3522ZM47.7228 30.0636V31.7981H40.1939V30.0636H40.9782V31.3317H40.9852V31.38H42.4191V31.3317H42.4433V30.0636H43.2241V31.38H44.658V31.3317H44.6891V30.0636H45.4769V31.38H46.9108V31.3317H46.935V30.0636H47.7228ZM40.1939 33.4566H41.6969V32.1367H40.1939V33.4566ZM42.0355 33.4566H43.8495V32.1367H42.0355V33.4566ZM44.1916 33.4566H46.0021V32.1367H44.1916V33.4566ZM46.3476 33.4566H47.7228V32.1367H46.3476V33.4566ZM49.0599 41.6557H50.3349V40.4637H49.0599V41.6557ZM49.6957 40.1216H50.3349V39.1646H49.6957V40.1216ZM47.778 41.6557H48.7178V40.4637H47.778V41.6557ZM49.3571 39.1646V40.1251H47.778V39.1646H49.3571Z" fill="#2C3563"/>
<path fill-rule="evenodd" clip-rule="evenodd" d="M30.3982 31.2414H39.855V30.7162H30.3982V31.2414ZM48.0645 31.2414H57.5662V30.7162H48.0645V31.2414ZM30.7713 36.8491H34.8173V36.3239H30.7713V36.8491ZM53.2162 36.8491H57.1896V36.3239H53.2162V36.8491ZM31.0581 41.2234H37.2602V40.6982H31.0581V41.2234ZM41.5515 41.2234H46.3473V40.6982H41.5515V41.2234ZM50.6766 41.2234H56.9063V40.6982H50.6766V41.2234ZM32.1499 46.0226H38.3865L40.8086 43.6006H41.548L39.1294 46.0226H48.5517L45.9879 43.4589H46.3473V43.6006H46.8725L49.2911 46.0226H55.811V46.5444H32.1499V46.0226Z" fill="#2C3563"/>
<path fill-rule="evenodd" clip-rule="evenodd" d="M34.2932 22.6645L27.2585 28.7802C29.2107 29.0048 30.5167 31.1297 30.5236 32.9713L30.534 37.2177C30.5443 41.0115 30.6791 47.7284 34.8115 49.3972C35.5578 49.6944 39.3931 50.5962 41.2416 51.5083C43.4702 52.6071 43.7189 53.7128 44.0092 53.7819C44.4273 53.4087 44.8315 52.5 46.4382 51.6811C48.4664 50.6549 52.0114 49.8671 53.1862 49.3972C57.322 47.7284 57.4533 41.0115 57.4637 37.2177L57.474 33.189C57.4809 31.2506 58.6315 29.022 60.7392 28.7802L53.7044 22.6645C50.3702 24.7376 48.1347 25.6774 44.0748 25.6912C39.9528 25.7085 37.6758 24.7652 34.2932 22.6645ZM34.3969 23.587L28.6198 28.4968C28.7511 28.4727 30.223 29.2432 30.9175 31.3785C31.1974 32.2388 31.2216 33.3099 31.2077 34.3845C31.1974 35.3968 31.225 36.4127 31.2181 37.2765C31.2699 40.8042 31.2941 47.0788 35.0845 48.758C35.7893 49.0379 39.4449 49.8671 41.1863 50.724C43.2905 51.7571 43.75 52.5173 44.0092 52.6106C44.4031 52.2581 44.835 51.7087 46.3483 50.9417C48.2625 49.9708 51.7799 49.183 52.889 48.7373C56.6033 47.1652 56.6517 40.7973 56.7761 37.2177L56.7588 34.5434C56.7623 33.3894 56.6517 32.4876 57.0456 31.3854C57.4671 30.1899 58.2134 29.0462 59.3951 28.5072L53.6042 23.511C50.3944 25.5047 47.9757 26.3373 44.0299 26.3512C40.2672 26.365 37.5549 25.5461 34.3969 23.587Z" fill="#2C3563"/>
<path fill-rule="evenodd" clip-rule="evenodd" d="M53.3858 25.1108L54.139 26.676L55.8597 26.9109L54.6055 28.1133L54.913 29.8202L53.3858 28.9979L51.8552 29.8202L52.1627 28.1133L50.9085 26.9109L52.6291 26.676L53.3858 25.1108ZM43.9255 46.7748L44.6788 48.34L46.4029 48.5749L45.1452 49.7739L45.4527 51.4842L43.9255 50.6619L42.3949 51.4842L42.7024 49.7739L41.4516 48.5749L43.1688 48.34L43.9255 46.7748ZM43.9255 47.8597L44.3609 48.758L45.3491 48.8928L44.6269 49.5838L44.8066 50.5651L43.9255 50.0918L43.0445 50.5651L43.2241 49.5838L42.5055 48.8928L43.4902 48.758L43.9255 47.8597ZM34.5862 25.1108L35.3394 26.676L37.0601 26.9109L35.8059 28.1133L36.1168 29.8202L34.5862 28.9979L33.0555 29.8202L33.3665 28.1133L32.1123 26.9109L33.8329 26.676L34.5862 25.1108ZM34.5862 26.1957L35.0215 27.0941L36.0097 27.2288L35.291 27.9199L35.4638 28.9011L34.5862 28.4312L33.7086 28.9011L33.8813 27.9199L33.1626 27.2288L34.1543 27.0941L34.5862 26.1957ZM53.3858 26.1957L53.8177 27.0941L54.8059 27.2288L54.0872 27.9199L54.2634 28.9011L53.3858 28.4312L52.5047 28.9011L52.681 27.9199L51.9623 27.2288L52.9505 27.0941L53.3858 26.1957Z" fill="#2C3563"/>
<path fill-rule="evenodd" clip-rule="evenodd" d="M35.8825 57.4476C35.8065 57.4545 35.7789 57.4959 35.7962 57.572C35.8031 57.648 35.7962 57.7067 35.7754 57.7447C35.7616 57.7585 35.7374 57.7931 35.7029 57.8484C35.5854 57.9728 35.5059 58.0661 35.4576 58.1179C35.3988 58.187 35.3781 58.2215 35.3885 58.2215C35.4023 58.2354 35.461 58.2077 35.5578 58.149C35.5923 58.1213 35.696 58.0591 35.8687 57.9693C35.9793 57.9071 36.0519 57.8657 36.0899 57.8346C36.1106 57.8173 36.1624 57.7965 36.2384 57.762C36.3352 57.7171 36.3732 57.6756 36.3421 57.6411C36.1901 57.5132 36.038 57.4476 35.8825 57.4476ZM41.9568 57.1435C41.9429 57.1435 41.9222 57.1504 41.8946 57.1642C41.5456 57.3025 40.9237 57.4165 40.046 57.5029C39.8076 57.5305 39.7904 57.572 39.9908 57.6273C40.2084 57.6549 40.4192 57.6514 40.6334 57.6134C40.706 57.7171 40.6887 57.8726 40.5781 58.0764C40.3708 58.4358 40.1393 58.6638 39.8906 58.7536C39.8491 58.7709 39.8284 58.7847 39.8145 58.802C39.7765 58.8711 39.7662 58.9644 39.7869 59.0819C39.8042 59.1613 39.8422 59.2028 39.894 59.1993C39.894 59.1993 39.9562 59.1786 40.0737 59.1475C40.2464 59.0992 40.8546 58.9264 41.9118 58.6292C41.9257 58.6431 41.9395 58.6569 41.9533 58.6707C42.1261 58.8469 42.2435 58.9195 42.3057 58.8884C42.4474 58.7502 42.4336 58.5705 42.2608 58.3528C42.1468 58.2388 41.9533 58.1386 41.6838 58.0591C41.4247 57.9935 41.3452 58.0108 41.4419 58.111C41.5456 58.2146 41.6631 58.3494 41.8082 58.5152C41.131 58.6431 40.5989 58.7398 40.2153 58.7986C40.4088 58.6258 40.6611 58.3701 40.9789 58.0177C40.9997 57.99 41.0342 57.9589 41.0722 57.9313C41.2692 57.8138 41.2346 57.6964 40.9755 57.5754C41.5456 57.4925 41.9498 57.4234 42.1882 57.3716C42.3195 57.3336 42.3576 57.2817 42.2988 57.2057C42.2435 57.1539 42.1295 57.1332 41.9568 57.1435ZM47.7718 57.0813C47.7062 57.0882 47.6958 57.1297 47.7476 57.1988C47.8098 57.2714 47.7995 57.4234 47.7235 57.6618C47.5023 58.5049 47.2259 59.0991 46.8873 59.4447C46.7698 59.5725 46.7906 59.5932 46.9426 59.5069C47.3434 59.2201 47.6647 58.7364 47.9031 58.0488C47.9895 58.1732 48.1381 58.4392 48.3419 58.8366C48.4421 59.0024 48.5078 59.1199 48.5458 59.189C48.5907 59.3928 48.8118 59.4689 49.2126 59.4239C49.2541 59.4274 49.2886 59.4274 49.3163 59.4309C49.451 59.4239 49.5374 59.4067 49.5789 59.3825C49.6238 59.3583 49.6031 59.3306 49.5201 59.2995C48.8878 58.9195 48.4732 58.5636 48.2763 58.2319C48.1381 58.0626 48.0379 57.952 47.9722 57.8933C48.0206 57.7102 48.0828 57.5512 48.1554 57.4234C48.1726 57.3819 48.1795 57.3508 48.183 57.3232C48.1312 57.2403 47.9964 57.1608 47.7718 57.0813ZM52.9269 59.6589C53.0444 59.6831 53.2448 59.6935 53.5282 59.6865C53.7147 59.6969 53.8357 59.7038 53.8909 59.7107C54.0499 59.728 54.1328 59.6969 54.1432 59.6174C54.1432 59.5103 54.0706 59.4412 53.9255 59.4101C53.8322 59.3998 53.6629 59.4067 53.4176 59.4343C53.2137 59.4619 53.0583 59.4758 52.9477 59.4792C52.9995 59.0301 53.0582 58.6984 53.1239 58.491C53.1446 58.4116 53.1688 58.339 53.1896 58.2768C53.2068 58.225 53.2206 58.1835 53.2241 58.1593C53.1723 58.0177 52.9788 57.914 52.654 57.8484C52.5711 57.8691 52.5607 57.9417 52.6264 58.0695C52.6678 58.1697 52.692 58.2492 52.6989 58.3183C52.73 58.7433 52.6333 59.7073 52.4052 61.2137L51.6416 61.1861C51.6416 61.0651 51.6485 60.9028 51.652 60.7024C51.6762 60.1806 51.7004 59.8593 51.7245 59.7418C51.7315 59.6865 51.7487 59.6209 51.7695 59.5449C51.7902 59.493 51.7936 59.455 51.7833 59.4239C51.69 59.3065 51.5241 59.2132 51.2926 59.1441C51.1994 59.1337 51.1925 59.2028 51.2685 59.3445C51.3238 59.4481 51.3583 59.5241 51.3618 59.576C51.3963 59.8524 51.3894 60.3845 51.341 61.1688C51.0266 61.1895 50.7191 61.1792 50.415 61.1412C50.2526 61.1377 50.1904 61.1584 50.225 61.2034C50.301 61.2517 50.4358 61.3001 50.6327 61.3485C51.265 61.3312 51.9319 61.3381 52.6264 61.3796C52.9442 61.4038 53.2656 61.4418 53.5834 61.4901C53.8875 61.5247 54.1777 61.5731 54.4541 61.6318C54.6787 61.6698 54.772 61.6214 54.734 61.4832C54.6476 61.3243 54.4956 61.2241 54.2849 61.1895C54.2192 61.1826 54.0222 61.1861 53.6975 61.1999C53.2656 61.2034 52.9373 61.2068 52.7058 61.2068L52.9269 59.6589ZM46.0511 57.3301C46.2654 57.6203 46.452 57.7862 46.6074 57.8207C46.8113 57.762 46.8389 57.6411 46.6903 57.4476C46.2308 57.223 46.0235 57.1815 46.0511 57.3301ZM46.7905 58.1939C46.7629 58.1904 46.6696 58.2077 46.5072 58.2388C45.9095 58.3701 45.3601 58.4254 44.8522 58.4116C44.7555 58.4219 44.7485 58.4565 44.828 58.5118C44.9282 58.612 45.0388 58.6776 45.1562 58.7087C45.1977 58.7122 45.4361 58.6569 45.868 58.5463C45.906 59.0992 45.5191 59.7211 44.7071 60.4121C44.5931 60.4881 44.5931 60.5123 44.7036 60.4916C44.7969 60.4709 44.9075 60.4156 45.0319 60.3292C45.5018 60.0217 45.8335 59.6347 46.0166 59.1752C46.0304 59.1786 46.0546 59.1855 46.0961 59.2028C46.2654 59.2754 46.3552 59.3272 46.369 59.3548C46.3898 59.4516 46.3448 59.6416 46.2377 59.9319C46.1306 60.2083 46.0408 60.3603 45.9717 60.3983C45.9578 60.3983 45.8991 60.3845 45.7955 60.3499C45.5985 60.2705 45.526 60.2601 45.5743 60.3188C45.6884 60.4605 45.7575 60.6022 45.792 60.7507C45.792 60.7784 45.7955 60.7887 45.8093 60.7887C45.9164 60.8371 46.0373 60.7957 46.179 60.6713C46.293 60.5434 46.3898 60.3534 46.4692 60.1046C46.566 59.7867 46.6592 59.5587 46.7491 59.417C46.7594 59.3756 46.7698 59.3479 46.7698 59.3376C46.7249 59.227 46.6385 59.1406 46.5245 59.0819C46.4969 59.0819 46.4658 59.0715 46.4243 59.0577C46.3207 59.0508 46.217 59.0404 46.1272 59.0231C46.141 58.9817 46.1721 58.9368 46.2101 58.8884C46.255 58.8193 46.2723 58.7744 46.2584 58.7467C46.2757 58.7225 46.1824 58.65 45.989 58.5325C46.3552 58.4703 46.6627 58.4427 46.9149 58.4392C47.0497 58.4496 47.1084 58.4116 47.0842 58.3286C47.0359 58.2457 46.9357 58.1973 46.7905 58.1939ZM47.5265 59.4965C47.5369 59.5103 47.5576 59.538 47.5818 59.5794C47.8064 59.8593 47.9549 59.994 48.0241 59.9837C48.2106 59.9008 48.2486 59.7695 48.1242 59.5898C47.6924 59.4032 47.4885 59.3756 47.5265 59.4965ZM47.3607 60.3534C47.644 60.7542 47.8893 61.003 48.0828 61.0928C48.2901 61.0099 48.3143 60.8509 48.1519 60.616C48.0344 60.5296 47.8375 60.4294 47.561 60.3223C47.3779 60.2705 47.3123 60.2808 47.3607 60.3534ZM41.397 59.842C41.594 59.8178 41.8047 59.7798 42.0293 59.728C42.2297 59.7038 42.3265 59.6589 42.323 59.5932C42.3057 59.5138 42.2055 59.4792 42.0155 59.4896C41.9775 59.4896 41.9187 59.5 41.8393 59.5172C41.7564 59.5207 41.6112 59.5483 41.4005 59.6002C41.397 59.493 41.4108 59.3859 41.4419 59.2754C41.4558 59.2374 41.4523 59.2028 41.4385 59.1752C41.207 59.0542 41.0273 58.999 40.9064 59.0059C40.8511 59.0093 40.8546 59.0577 40.9167 59.1648C41.0031 59.3341 41.055 59.5069 41.0653 59.6796C40.9444 59.6969 40.7854 59.728 40.585 59.7626C40.3605 59.804 40.243 59.8247 40.2292 59.8247C40.0288 59.8731 40.0668 59.918 40.3363 59.9595C40.5505 59.9733 40.7958 59.9526 41.0757 59.8973L41.1344 60.578C40.585 60.6609 40.0668 60.73 39.5761 60.7784C39.4967 60.7991 39.4345 60.8095 39.3999 60.8095C39.2099 60.8336 39.1373 60.8647 39.1788 60.9028C39.2514 60.9235 39.3896 60.9511 39.6072 60.9788C39.6211 60.9788 39.666 60.9684 39.7455 60.9511C40.858 60.7196 42.0017 60.6263 43.1833 60.6713C43.4114 60.6713 43.4874 60.6091 43.4148 60.4778C43.3112 60.3499 43.1384 60.2808 42.8793 60.2636C42.8447 60.267 42.7687 60.2774 42.6651 60.2981C42.3161 60.3707 41.9049 60.4432 41.4281 60.5227L41.397 59.842ZM34.4141 57.8242C34.3484 57.8173 34.3346 57.8518 34.3657 57.9244C34.4106 58.0108 34.4901 58.1006 34.6007 58.1939C34.6698 58.263 34.7354 58.2837 34.7976 58.2526C34.8564 58.2215 34.884 58.1628 34.8771 58.073C34.8218 57.9106 34.6698 57.8276 34.4141 57.8242ZM35.461 59.0439C35.7927 59.0024 36.0104 58.9575 36.121 58.9091C36.2315 58.8227 36.1555 58.7847 35.9033 58.7916C35.8618 58.7951 35.7893 58.8089 35.6718 58.8331C35.5854 58.8677 35.5198 58.8849 35.4679 58.8884C35.4645 58.8642 35.4748 58.8227 35.4956 58.7709C35.5059 58.7329 35.5094 58.6983 35.5059 58.6742C35.5025 58.6362 35.4679 58.5947 35.3988 58.5463C35.8515 58.4565 36.1486 58.3943 36.2868 58.3563C36.3628 58.3217 36.3801 58.2768 36.3352 58.2181C36.2764 58.1835 36.1935 58.1697 36.0795 58.1801C36.0691 58.1835 36.0242 58.1939 35.9482 58.2112C35.4714 58.3563 34.9324 58.4669 34.3243 58.5429C34.2102 58.5671 34.1999 58.5982 34.2932 58.6431C34.3692 58.6742 34.4901 58.6811 34.6421 58.6707C34.7423 58.6638 34.8495 58.6465 34.96 58.6223C35.0326 58.6811 35.0879 58.7916 35.1259 58.9575C34.9497 58.9955 34.7631 59.03 34.5592 59.0611C34.4867 59.1061 34.5247 59.1441 34.6801 59.1683C34.8011 59.1717 34.9566 59.151 35.157 59.1061L35.1881 59.4309C34.7562 59.5069 34.4417 59.5552 34.2344 59.5691C34.1377 59.6071 34.1411 59.6416 34.2448 59.6831C34.3243 59.7038 34.459 59.7073 34.6525 59.69C34.8011 59.6762 34.9358 59.6589 35.0498 59.6347C35.112 59.6174 35.1639 59.6071 35.2019 59.6036L35.2399 60.3119C35.2053 60.3154 35.1466 60.3257 35.074 60.3465C34.1066 60.4812 33.5296 60.5469 33.3395 60.5503C33.2497 60.5572 33.2324 60.5883 33.2877 60.6333C33.3845 60.7127 33.495 60.768 33.6125 60.7991C33.6229 60.7957 33.6712 60.7853 33.7645 60.7645C34.1066 60.6194 34.9358 60.4674 36.2419 60.305C36.5736 60.2739 36.9744 60.267 37.4512 60.2739C37.4892 60.2739 37.5099 60.2705 37.5099 60.2705C37.6481 60.2463 37.6551 60.1772 37.5307 60.0562C37.4063 59.9664 37.2612 59.9249 37.0988 59.9422C37.0331 59.9457 36.8638 59.9802 36.5839 60.0424C36.3594 60.1012 36.2073 60.1322 36.1313 60.1392C36.311 59.9699 36.4319 59.842 36.5045 59.7626C36.5494 59.7073 36.5321 59.6623 36.4527 59.6312C36.3352 59.576 36.2177 59.5621 36.1037 59.5863C36.0518 59.5898 36.0449 59.6209 36.076 59.6831C36.1037 59.7556 36.114 59.8144 36.1071 59.8524C36.0553 59.9871 35.9931 60.1012 35.924 60.1945L35.5094 60.2705L35.4887 59.5794C35.5889 59.5587 35.7409 59.5311 35.9447 59.5034C36.235 59.4516 36.4216 59.417 36.5114 59.3963C36.6116 59.3617 36.6323 59.3203 36.577 59.2754C36.5114 59.2408 36.4008 59.2304 36.2453 59.2443C36.2246 59.2477 36.1382 59.2581 36 59.2857C35.81 59.3134 35.6338 59.341 35.4714 59.3687L35.461 59.0439ZM34.8253 59.963C34.7562 59.8938 34.6352 59.8524 34.4521 59.842C34.3864 59.8455 34.3934 59.9077 34.4694 60.0321C34.5696 60.1875 34.656 60.2705 34.7182 60.2808C34.8564 60.2152 34.8909 60.1115 34.8253 59.963ZM36.1728 60.616C36.1348 60.6194 35.9966 60.6505 35.7582 60.7093C35.3712 60.8095 35.036 60.8889 34.7596 60.9511C34.6629 60.882 34.5696 60.8578 34.4832 60.8786C34.421 60.8958 34.4245 60.9408 34.497 61.0099C34.5385 61.0721 34.5869 61.1999 34.6456 61.4038C34.6801 61.542 34.7182 61.6594 34.7527 61.7596C34.8011 61.8702 34.8564 61.9289 34.922 61.9359C34.9669 61.9186 34.9842 61.8529 34.96 61.7424C34.998 61.7389 35.1501 61.7182 35.4161 61.6836C35.9862 61.5938 36.3628 61.5454 36.539 61.5281C36.5909 61.5109 36.5943 61.4832 36.5494 61.4487C36.5114 61.4038 36.4492 61.3692 36.3732 61.3485C36.4561 61.1515 36.5632 61.0133 36.698 60.9373C36.7602 60.8959 36.7291 60.8302 36.6081 60.7542C36.4457 60.6643 36.3006 60.6194 36.1728 60.616ZM34.8045 61.0617C34.8322 61.0582 34.9151 61.0479 35.0533 61.0202C35.4161 60.9373 35.7582 60.882 36.0795 60.8578C36.1279 60.8509 36.152 60.9131 36.152 61.041C36.1382 61.1964 36.1037 61.3139 36.0484 61.3969L34.9324 61.6249L34.8045 61.0617Z" fill="#2C3563"/>
<path fill-rule="evenodd" clip-rule="evenodd" d="M56.3788 56.757C56.9593 56.1212 57.1355 55.5684 57.1389 55.0536C57.1459 54.4489 56.8314 54.1207 56.5308 53.7648C56.2095 53.3847 55.8985 52.9839 55.7189 52.5174C55.5806 52.1616 55.6359 51.5845 55.819 51.0041C56.1749 49.85 57.3117 49.0726 58.3863 49.0726H61.064L61.0778 47.6802C61.0986 46.8406 60.6494 46.115 60.3281 45.3445C60.0931 44.7848 59.9584 44.1836 59.9687 43.5582L60.0275 40.2205H60.0516C60.3522 40.7076 60.6528 41.1948 60.9604 41.6716C61.3439 41.0462 62.3113 40.6005 63.4377 40.6005C64.8993 40.6005 66.0913 41.3503 66.0913 42.2659C66.0913 42.7704 65.7285 43.223 65.1619 43.5271V47.0133C65.3968 47.2967 65.6145 47.5904 65.8045 47.8979C66.2088 48.5509 66.423 49.318 66.2779 50.1023C65.9151 52.089 62.5636 54.0412 62.5256 56.1005C62.5187 56.5151 62.5428 57.4722 62.4979 58.1943C62.4841 58.526 62.4875 58.8093 62.4012 58.9717C62.2422 59.2827 61.9347 59.3449 61.6238 59.2792C60.9569 59.141 60.0758 58.2047 59.4677 58.3671C58.9322 58.5087 58.7698 59.0305 58.6834 59.5453C58.5487 60.3262 58.3344 61.0967 57.9785 61.8292C57.6365 62.5271 57.246 63.0558 56.9247 63.422C56.6932 63.6846 56.4894 63.8228 56.244 63.8988C56.0022 63.9748 55.7189 63.9887 55.3561 63.885C48.1762 61.8361 39.825 61.8361 32.6452 63.885C32.2824 63.9887 31.999 63.9748 31.7572 63.8988C31.5153 63.8228 31.308 63.6846 31.08 63.422C30.7552 63.0558 30.3647 62.5271 30.0261 61.8292C29.6702 61.0967 29.4526 60.3262 29.3213 59.5453C29.2314 59.0305 29.069 58.5087 28.5335 58.3671C27.9254 58.2047 27.0443 59.141 26.3809 59.2792C26.0665 59.3449 25.759 59.2827 25.6 58.9717C25.5137 58.8093 25.5171 58.526 25.4998 58.1943C25.4584 57.4722 25.486 56.5151 25.4757 56.1005C25.4377 54.0412 22.0896 52.089 21.7268 50.1023C21.5817 49.318 21.7924 48.5509 22.1967 47.8979C22.3867 47.5904 22.6079 47.2967 22.8394 47.0133V43.5271C22.2727 43.223 21.9099 42.7704 21.9099 42.2659C21.9099 41.3503 23.102 40.6005 24.5635 40.6005C25.6933 40.6005 26.6573 41.0462 27.0409 41.6716C27.3484 41.1948 27.6524 40.7076 27.953 40.2205H27.9772L28.0325 43.5582C28.0429 44.1836 27.9081 44.7848 27.6731 45.3445C27.3553 46.115 26.9026 46.8406 26.9234 47.6802L26.9372 49.0726H29.615C30.6895 49.0726 31.8297 49.85 32.1856 51.0041C32.3653 51.5845 32.4206 52.1616 32.2824 52.5174C32.1027 52.9839 31.7917 53.3847 31.4704 53.7648C31.1733 54.1207 30.8588 54.4489 30.8623 55.0536C30.8657 55.5684 31.0489 56.135 31.6328 56.7742C40.5022 54.8497 47.4091 54.8428 56.3788 56.757ZM55.2904 63.308C55.5357 63.384 55.8018 63.3978 55.9123 63.0039C56.4272 61.5769 55.819 59.7837 55.8743 58.3567C55.8847 57.9732 55.9469 57.6173 56.092 57.2994C47.803 55.4267 40.2258 55.4267 31.9092 57.2994C32.0543 57.6173 32.1165 57.9732 32.1303 58.3567C32.1856 59.7837 31.574 61.5769 32.0889 63.0039C32.1994 63.3978 32.4655 63.384 32.7108 63.308C39.901 61.3385 48.1002 61.342 55.2904 63.308ZM31.6466 63.2389C31.3046 62.5548 31.3184 61.5873 31.4048 60.6199C31.498 59.6178 31.6604 58.6158 31.5291 57.9283C31.4324 57.448 31.2044 57.2649 30.9452 56.8952C30.3095 55.9865 29.9398 54.7875 30.6619 53.865C31.1318 53.2603 31.7917 52.742 31.7952 52.1305C31.7986 51.436 31.6155 50.009 30.0469 49.6842L26.7126 49.6669C26.5779 50.2681 26.4362 51.7711 26.7541 52.3067C27.2551 53.1705 27.8977 54.2381 27.9669 55.52L28.029 57.911C28.0636 57.9006 28.0912 57.8903 28.1258 57.8799C28.1258 57.8799 29.069 57.524 29.5389 58.4984C29.8534 59.1479 29.8672 59.9945 30.0987 60.7028C30.2991 61.3247 30.6308 62.0019 31.0281 62.5202C31.156 62.693 31.5084 63.1801 31.6466 63.2389ZM26.3671 49.5494C26.3706 49.2938 26.3878 47.9773 26.4189 47.3001C26.45 46.6195 26.8681 45.9837 27.1549 45.3238C27.3656 44.84 27.4555 44.3425 27.5038 43.8035C27.5626 43.1677 27.5419 42.4767 27.5419 41.7304C27.5419 41.7304 26.5537 43.3785 25.1232 45.1856C24.3873 46.115 23.2574 47.1032 22.6562 48.0672C22.3038 48.6373 21.8995 49.6911 22.3867 50.5895C22.5318 50.8486 22.7046 51.1008 22.8946 51.3461L22.8843 51.322C22.8843 51.322 24.985 51.3392 26.3671 49.5494ZM23.3162 51.8506C24.4253 53.1152 25.8419 54.3383 25.9836 56.1108C25.987 56.4183 25.9041 58.4811 26.0838 58.6711C26.1701 58.7541 26.3325 58.8439 26.5882 58.7057C26.5882 58.7057 27.0547 58.3705 27.5591 58.1148C27.5488 57.6898 27.5177 56.712 27.4693 55.6548C27.4278 54.8151 27.103 53.8062 26.5848 53.053C26.1183 52.3723 25.9836 51.4394 26.0699 50.6482C26.0699 50.6482 24.6982 51.6156 23.3162 51.8506ZM23.3922 46.381C23.945 45.7764 24.5289 45.1925 25.0161 44.574C25.2511 44.2768 25.4791 43.9728 25.6968 43.6687H23.3922V46.381ZM26.101 43.0952C26.3084 42.7946 26.5088 42.494 26.7057 42.1899C26.6366 41.5611 25.6588 41.0601 24.5635 41.0601C23.4267 41.0601 22.4144 41.6025 22.4144 42.2659C22.4144 42.5769 22.6424 42.8637 23.0018 43.0814C23.1331 43.1366 23.2643 43.1677 23.3922 43.1781H25.911C25.987 43.1781 26.0319 43.1332 26.101 43.0952ZM56.3581 63.2389C56.7001 62.5548 56.6828 61.5873 56.5965 60.6199C56.5066 59.6178 56.3408 58.6158 56.4755 57.9283C56.5688 57.448 56.7969 57.2649 57.0595 56.8952C57.6952 55.9865 58.0615 54.7875 57.3393 53.865C56.8694 53.2603 56.2095 52.742 56.206 52.1305C56.2026 51.436 56.3892 50.009 57.9578 49.6842L61.2886 49.6669C61.4268 50.2681 61.565 51.7711 61.2506 52.3067C60.7461 53.1705 60.1035 54.2381 60.0344 55.52L59.9722 57.911C59.9411 57.9006 59.9065 57.8903 59.8754 57.8799C59.8754 57.8799 58.9356 57.524 58.4657 58.4984C58.1478 59.1479 58.1375 59.9945 57.9025 60.7028C57.7056 61.3247 57.3704 62.0019 56.9765 62.5202C56.8452 62.693 56.4928 63.1801 56.3581 63.2389ZM61.6341 49.5494C61.6307 49.2938 61.6168 47.9773 61.5857 47.3001C61.5512 46.6195 61.1331 45.9837 60.8463 45.3238C60.639 44.84 60.5492 44.3425 60.4974 43.8035C60.4386 43.1677 60.4594 42.4767 60.4594 41.7304C60.4594 41.7304 61.4475 43.3785 62.878 45.1856C63.6139 46.115 64.7473 47.1032 65.3484 48.0672C65.6974 48.6373 66.1017 49.6911 65.6145 50.5895C65.4694 50.8486 65.3001 51.1008 65.1066 51.3461L65.117 51.322C65.117 51.322 63.0162 51.3392 61.6341 49.5494ZM64.6851 51.8506C63.5794 53.1152 62.1593 54.3383 62.0176 56.1108C62.0142 56.4183 62.0971 58.4811 61.9174 58.6711C61.8311 58.7541 61.6687 58.8439 61.413 58.7057C61.413 58.7057 60.9465 58.3705 60.4421 58.1148C60.4559 57.6898 60.4835 56.712 60.5354 55.6548C60.5734 54.8151 60.9016 53.8062 61.4165 53.053C61.8864 52.3723 62.0177 51.4394 61.9313 50.6482C61.9313 50.6482 63.303 51.6156 64.6851 51.8506ZM64.609 46.381C64.0597 45.7764 63.4723 45.1925 62.9851 44.574C62.7501 44.2768 62.5221 43.9728 62.3044 43.6687H64.609V46.381ZM61.9002 43.0952C61.6929 42.7946 61.4925 42.494 61.2955 42.1899C61.3646 41.5611 62.3459 41.0601 63.4377 41.0601C64.5779 41.0601 65.5869 41.6025 65.5869 42.2659C65.5869 42.5769 65.3623 42.8637 64.9995 43.0814C64.8682 43.1366 64.7403 43.1677 64.609 43.1781H62.0937C62.0142 43.1781 61.9693 43.1332 61.9002 43.0952Z" fill="#2C3563"/>
</svg>
